<svg width="1058" height="157" viewBox="0 0 1058 157" fill="none" xmlns="http://www.w3.org/2000/svg">
<path d="M104.913 0.899998H122.289V4.356H106.353L104.865 5.94V14.82H116.001V18.324H104.865V28.26L106.737 31.044H122.289V34.5H104.865L101.025 28.74V4.884L104.913 0.899998ZM147.231 0.899998H151.119V9.924L146.271 14.82L151.119 21.876V34.5H147.231V22.404L144.351 18.324H139.311L133.647 24.18V34.5H129.807V23.124L134.655 18.228L129.807 11.124V0.899998H133.647V10.644L136.431 14.82H141.615L147.231 8.964V0.899998ZM158.636 0.899998H176.012L179.852 6.66V14.436L176.012 18.324H162.476V34.5H158.636V0.899998ZM162.524 4.356V17.172L166.412 14.916H174.524L176.012 13.38V7.188L174.14 4.356H162.524ZM187.369 0.899998H191.209V28.164L193.177 30.996H204.793V27.54H208.681V34.5H191.353L187.369 28.548V0.899998ZM220.038 0.899998H233.67L237.462 6.66V30.516L233.67 34.5H220.038L216.15 28.74V4.884L220.038 0.899998ZM219.99 28.26L221.862 31.044H232.134L233.574 29.46V7.14L231.75 4.356H221.478L219.99 5.94V28.26ZM244.932 0.899998H261.06L266.244 8.436V13.236L261.492 18.084L266.244 24.948V34.5H262.356V25.38L257.508 18.324H252.564L248.772 15.972V34.5H244.932V0.899998ZM248.772 4.356V14.82H259.908L262.356 12.372V8.964L259.188 4.356H248.772ZM277.601 0.899998H294.977V4.356H279.041L277.553 5.94V14.82H288.689V18.324H277.553V28.26L279.425 31.044H294.977V34.5H277.553L273.713 28.74V4.884L277.601 0.899998ZM335.163 0.899998H352.539V4.356H336.603L335.115 5.94V14.82H346.251V18.324H335.115V28.26L336.987 31.044H352.539V34.5H335.115L331.275 28.74V4.884L335.163 0.899998ZM367.929 0.899998H381.273V34.5H377.433V19.14H363.993V34.5H360.153V8.916L367.929 0.899998ZM363.993 9.828V15.684H377.433V4.356H369.321L363.993 9.828ZM388.838 0.899998H404.966L410.15 8.436V13.236L405.398 18.084L410.15 24.948V34.5H406.262V25.38L401.414 18.324H396.47L392.678 15.972V34.5H388.838V0.899998ZM392.678 4.356V14.82H403.814L406.262 12.372V8.964L403.094 4.356H392.678ZM415.747 0.899998H440.803V4.356H426.499L430.243 6.66V34.5H426.355V7.14L424.531 4.356H415.747V0.899998ZM446.4 0.899998H450.24V17.076L454.032 14.82H459.936L463.824 17.076V0.899998H467.712V34.5H463.824V20.964L462 18.324H451.68L450.24 19.764V34.5H446.4V0.899998ZM482.478 0.899998H489.198V13.476L485.022 17.7L483.054 14.676L485.358 12.276V7.284H482.478V0.899998ZM507.851 0.899998H521.387L523.931 4.836L521.483 7.236L519.515 4.356H509.291L507.851 5.892V12.084L509.771 14.868H521.819L525.227 19.956V30.996L521.867 34.5H506.123L504.011 31.524L506.411 28.98L507.899 31.044H520.235L521.387 30.036V20.388L519.947 18.324H507.851L504.011 12.612V4.884L507.851 0.899998ZM561.573 0.899998H582.789V4.404H574.101V30.996H582.789V34.5H561.573V30.996H570.261V4.404H561.573V0.899998ZM607.731 0.899998H611.619V34.5H607.731V21.684L596.067 4.356H594.195V34.5H590.355V0.899998H597.891L607.731 15.444V0.899998ZM617.216 0.899998H642.272V4.356H627.968L631.712 6.66V34.5H627.824V7.14L626 4.356H617.216V0.899998ZM651.757 0.899998H669.133V4.356H653.197L651.709 5.94V14.82H662.845V18.324H651.709V28.26L653.581 31.044H669.133V34.5H651.709L647.869 28.74V4.884L651.757 0.899998ZM676.65 0.899998H692.778L697.962 8.436V13.236L693.21 18.084L697.962 24.948V34.5H694.074V25.38L689.226 18.324H684.282L680.49 15.972V34.5H676.65V0.899998ZM680.49 4.356V14.82H691.626L694.074 12.372V8.964L690.906 4.356H680.49ZM710.136 0.899998H723.624L726.792 5.7L724.344 8.292L721.8 4.356H711.576L710.088 5.94V28.26L711.96 31.044H722.088L724.968 28.164L726.888 31.044L723.624 34.5H710.088L706.248 28.74V4.884L710.136 0.899998ZM738.101 0.899998H751.733L755.525 6.66V30.516L751.733 34.5H738.101L734.213 28.74V4.884L738.101 0.899998ZM738.053 28.26L739.925 31.044H750.197L751.637 29.46V7.14L749.813 4.356H739.541L738.053 5.94V28.26ZM780.418 0.899998H784.306V34.5H780.418V21.684L768.754 4.356H766.882V34.5H763.042V0.899998H770.578L780.418 15.444V0.899998ZM809.199 0.899998H813.087V34.5H809.199V21.684L797.535 4.356H795.663V34.5H791.823V0.899998H799.359L809.199 15.444V0.899998ZM824.445 0.899998H841.821V4.356H825.885L824.397 5.94V14.82H835.533V18.324H824.397V28.26L826.269 31.044H841.821V34.5H824.397L820.557 28.74V4.884L824.445 0.899998ZM854.042 0.899998H867.53L870.698 5.7L868.25 8.292L865.706 4.356H855.482L853.994 5.94V28.26L855.866 31.044H865.994L868.874 28.164L870.794 31.044L867.53 34.5H853.994L850.154 28.74V4.884L854.042 0.899998ZM876.247 0.899998H901.303V4.356H886.999L890.743 6.66V34.5H886.855V7.14L885.031 4.356H876.247V0.899998ZM910.788 0.899998H928.164V4.356H912.228L910.74 5.94V14.82H921.876V18.324H910.74V28.26L912.612 31.044H928.164V34.5H910.74L906.9 28.74V4.884L910.788 0.899998ZM936.21 0.899998H950.994L957.474 10.548V30.516L953.634 34.5H936.21V0.899998ZM940.05 4.356V31.044H952.05L953.586 29.46V11.028L949.122 4.356H940.05ZM4.17888 61.9H17.7149L20.2589 65.836L17.8109 68.236L15.8429 65.356H5.61888L4.17888 66.892V73.084L6.09888 75.868H18.1469L21.5549 80.956V91.996L18.1949 95.5H2.45088L0.338875 92.524L2.73888 89.98L4.22688 92.044H16.5629L17.7149 91.036V81.388L16.2749 79.324H4.17888L0.338875 73.612V65.884L4.17888 61.9ZM46.4481 61.9H50.3361V69.772L41.6001 78.796V95.5H37.7601V79.228L29.0721 66.316V61.9H32.9121V65.884L39.5841 75.82H39.6801L46.4481 68.764V61.9ZM61.7414 61.9H75.2774L77.8214 65.836L75.3734 68.236L73.4054 65.356H63.1814L61.7414 66.892V73.084L63.6614 75.868H75.7094L79.1174 80.956V91.996L75.7574 95.5H60.0134L57.9014 92.524L60.3014 89.98L61.7894 92.044H74.1254L75.2774 91.036V81.388L73.8374 79.324H61.7414L57.9014 73.612V65.884L61.7414 61.9ZM84.7626 61.9H109.819V65.356H95.5146L99.2586 67.66V95.5H95.3706V68.14L93.5466 65.356H84.7626V61.9ZM119.304 61.9H136.68V65.356H120.744L119.256 66.94V75.82H130.392V79.324H119.256V89.26L121.128 92.044H136.68V95.5H119.256L115.416 89.74V65.884L119.304 61.9ZM144.245 61.9H148.085V63.244L153.125 70.684L161.621 61.9H165.509V95.5H161.621V66.94L156.869 71.932V76.3H152.693V76.204L148.085 69.388V95.5H144.245V61.9ZM176.866 61.9H190.402L192.946 65.836L190.498 68.236L188.53 65.356H178.306L176.866 66.892V73.084L178.786 75.868H190.834L194.242 80.956V91.996L190.882 95.5H175.138L173.026 92.524L175.426 89.98L176.914 92.044H189.25L190.402 91.036V81.388L188.962 79.324H176.866L173.026 73.612V65.884L176.866 61.9ZM209.056 71.116H215.776V77.836H209.056V71.116ZM209.056 87.436H215.776V94.156H209.056V87.436ZM263.21 61.9H276.746L279.29 65.836L276.842 68.236L274.874 65.356H264.65L263.21 66.892V73.084L265.13 75.868H277.178L280.586 80.956V91.996L277.226 95.5H261.482L259.37 92.524L261.77 89.98L263.258 92.044H275.594L276.746 91.036V81.388L275.306 79.324H263.21L259.37 73.612V65.884L263.21 61.9ZM291.991 61.9H309.367V65.356H293.431L291.943 66.94V75.82H303.079V79.324H291.943V89.26L293.815 92.044H309.367V95.5H291.943L288.103 89.74V65.884L291.991 61.9ZM320.773 61.9H338.149V65.356H322.213L320.725 66.94V75.82H331.861V79.324H320.725V89.26L322.597 92.044H338.149V95.5H320.725L316.885 89.74V65.884L320.773 61.9ZM374.447 61.9H378.287V78.076L382.079 75.82H387.983L391.871 78.076V61.9H395.759V95.5H391.871V81.964L390.047 79.324H379.727L378.287 80.764V95.5H374.447V61.9ZM407.116 61.9H420.748L424.54 67.66V91.516L420.748 95.5H407.116L403.228 89.74V65.884L407.116 61.9ZM407.068 89.26L408.94 92.044H419.212L420.652 90.46V68.14L418.828 65.356H408.556L407.068 66.94V89.26ZM431.05 61.9H434.89V89.788L436.234 92.044H437.434L440.698 88.636V75.82H444.586V87.196L447.898 92.044H449.05L450.346 90.604V61.9H454.234V91.516L450.346 95.5H446.026L443.05 91.084L438.874 95.5H434.89L431.05 89.74V61.9ZM493.46 61.9H506.996L509.54 65.836L507.092 68.236L505.124 65.356H494.9L493.46 66.892V73.084L495.38 75.868H507.428L510.836 80.956V91.996L507.476 95.5H491.732L489.62 92.524L492.02 89.98L493.508 92.044H505.844L506.996 91.036V81.388L505.556 79.324H493.46L489.62 73.612V65.884L493.46 61.9ZM518.401 61.9H522.241V63.244L527.281 70.684L535.777 61.9H539.665V95.5H535.777V66.94L531.025 71.932V76.3H526.849V76.204L522.241 69.388V95.5H518.401V61.9ZM555.007 61.9H568.351V95.5H564.511V80.14H551.071V95.5H547.231V69.916L555.007 61.9ZM551.071 70.828V76.684H564.511V65.356H556.399L551.071 70.828ZM575.916 61.9H579.756V89.164L581.724 91.996H593.34V88.54H597.228V95.5H579.9L575.916 89.548V61.9ZM604.697 61.9H608.537V89.164L610.505 91.996H622.121V88.54H626.009V95.5H608.681L604.697 89.548V61.9ZM666.964 61.9H680.452L683.62 66.7L681.172 69.292L678.628 65.356H668.404L666.916 66.94V89.26L668.788 92.044H678.916L681.796 89.164L683.716 92.044L680.452 95.5H666.916L663.076 89.74V65.884L666.964 61.9ZM691.041 61.9H694.881V78.076L698.673 75.82H704.577L708.465 78.076V61.9H712.353V95.5H708.465V81.964L706.641 79.324H696.321L694.881 80.764V95.5H691.041V61.9ZM727.694 61.9H741.038V95.5H737.198V80.14H723.758V95.5H719.918V69.916L727.694 61.9ZM723.758 70.828V76.684H737.198V65.356H729.086L723.758 70.828ZM766.027 61.9H769.915V95.5H766.027V82.684L754.363 65.356H752.491V95.5H748.651V61.9H756.187L766.027 76.444V61.9ZM780.793 61.9H794.233L797.449 66.7L795.001 69.196L792.409 65.356H782.233L780.793 66.892V89.452L782.473 92.044H794.329V79.324H787.561V75.868H796.249L798.217 78.844V95.5H780.649L776.953 89.98V65.932L780.793 61.9ZM810.054 61.9H827.43V65.356H811.494L810.006 66.94V75.82H821.142V79.324H810.006V89.26L811.878 92.044H827.43V95.5H810.006L806.166 89.74V65.884L810.054 61.9ZM838.835 61.9H852.371L854.915 65.836L852.467 68.236L850.499 65.356H840.275L838.835 66.892V73.084L840.755 75.868H852.803L856.211 80.956V91.996L852.851 95.5H837.107L834.995 92.524L837.395 89.98L838.883 92.044H851.219L852.371 91.036V81.388L850.931 79.324H838.835L834.995 73.612V65.884L838.835 61.9ZM897.214 61.9H910.702L913.87 66.7L911.422 69.292L908.878 65.356H898.654L897.166 66.94V89.26L899.038 92.044H909.166L912.046 89.164L913.966 92.044L910.702 95.5H897.166L893.326 89.74V65.884L897.214 61.9ZM921.291 61.9H937.419L942.603 69.436V74.236L937.851 79.084L942.603 85.948V95.5H938.715V86.38L933.867 79.324H928.923L925.131 76.972V95.5H921.291V61.9ZM925.131 65.356V75.82H936.267L938.715 73.372V69.964L935.547 65.356H925.131ZM953.96 61.9H971.336V65.356H955.4L953.912 66.94V75.82H965.048V79.324H953.912V89.26L955.784 92.044H971.336V95.5H953.912L950.072 89.74V65.884L953.96 61.9ZM986.725 61.9H1000.07V95.5H996.229V80.14H982.789V95.5H978.949V69.916L986.725 61.9ZM982.789 70.828V76.684H996.229V65.356H988.117L982.789 70.828ZM1005.76 61.9H1030.82V65.356H1016.51L1020.26 67.66V95.5H1016.37V68.14L1014.55 65.356H1005.76V61.9ZM1040.3 61.9H1057.68V65.356H1041.74L1040.26 66.94V75.82H1051.39V79.324H1040.26V89.26L1042.13 92.044H1057.68V95.5H1040.26L1036.42 89.74V65.884L1040.3 61.9ZM158.588 122.9H174.716L179.9 130.436V135.236L175.148 140.084L179.9 146.948V156.5H176.012V147.38L171.164 140.324H166.22L162.428 137.972V156.5H158.588V122.9ZM162.428 126.356V136.82H173.564L176.012 134.372V130.964L172.844 126.356H162.428ZM187.417 122.9H208.633V126.404H199.945V152.996H208.633V156.5H187.417V152.996H196.105V126.404H187.417V122.9ZM216.198 122.9H233.574L237.414 128.66V136.436L233.574 140.324H220.038V156.5H216.198V122.9ZM220.086 126.356V139.172L223.974 136.916H232.086L233.574 135.38V129.188L231.702 126.356H220.086ZM244.98 122.9H262.356L266.196 128.66V136.436L262.356 140.324H248.82V156.5H244.98V122.9ZM248.868 126.356V139.172L252.756 136.916H260.868L262.356 135.38V129.188L260.484 126.356H248.868ZM273.713 122.9H277.553V150.164L279.521 152.996H291.137V149.54H295.025V156.5H277.697L273.713 150.548V122.9ZM306.382 122.9H323.758V126.356H307.822L306.334 127.94V136.82H317.47V140.324H306.334V150.26L308.206 153.044H323.758V156.5H306.334L302.494 150.74V126.884L306.382 122.9ZM335.163 122.9H348.699L351.243 126.836L348.795 129.236L346.827 126.356H336.603L335.163 127.892V134.084L337.083 136.868H349.131L352.539 141.956V152.996L349.179 156.5H333.435L331.323 153.524L333.723 150.98L335.211 153.044H347.547L348.699 152.036V142.388L347.259 140.324H335.163L331.323 134.612V126.884L335.163 122.9ZM396.71 122.9H410.054V156.5H406.214V141.14H392.774V156.5H388.934V130.916L396.71 122.9ZM392.774 131.828V137.684H406.214V126.356H398.102L392.774 131.828ZM422.323 122.9H435.811L438.979 127.7L436.531 130.292L433.987 126.356H423.763L422.275 127.94V150.26L424.147 153.044H434.275L437.155 150.164L439.075 153.044L435.811 156.5H422.275L418.435 150.74V126.884L422.323 122.9ZM446.4 122.9H462.528L467.712 130.436V135.236L462.96 140.084L467.712 146.948V156.5H463.824V147.38L458.976 140.324H454.032L450.24 137.972V156.5H446.4V122.9ZM450.24 126.356V136.82H461.376L463.824 134.372V130.964L460.656 126.356H450.24ZM479.07 122.9H492.702L496.494 128.66V152.516L492.702 156.5H479.07L475.182 150.74V126.884L479.07 122.9ZM479.022 150.26L480.894 153.044H491.166L492.606 151.46V129.14L490.782 126.356H480.51L479.022 127.94V150.26ZM507.851 122.9H521.387L523.931 126.836L521.483 129.236L519.515 126.356H509.291L507.851 127.892V134.084L509.771 136.868H521.819L525.227 141.956V152.996L521.867 156.5H506.123L504.011 153.524L506.411 150.98L507.899 153.044H520.235L521.387 152.036V142.388L519.947 140.324H507.851L504.011 134.612V126.884L507.851 122.9ZM536.632 122.9H550.168L552.712 126.836L550.264 129.236L548.296 126.356H538.072L536.632 127.892V134.084L538.552 136.868H550.6L554.008 141.956V152.996L550.648 156.5H534.904L532.792 153.524L535.192 150.98L536.68 153.044H549.016L550.168 152.036V142.388L548.728 140.324H536.632L532.792 134.612V126.884L536.632 122.9ZM588.435 122.9H613.491V126.356H599.187L602.931 128.66V156.5H599.043V129.14L597.219 126.356H588.435V122.9ZM619.088 122.9H622.928V139.076L626.72 136.82H632.624L636.512 139.076V122.9H640.4V156.5H636.512V142.964L634.688 140.324H624.368L622.928 141.764V156.5H619.088V122.9ZM651.757 122.9H669.133V126.356H653.197L651.709 127.94V136.82H662.845V140.324H651.709V150.26L653.581 153.044H669.133V156.5H651.709L647.869 150.74V126.884L651.757 122.9ZM705.48 122.9H722.856L726.696 128.66V136.436L722.856 140.324H709.32V156.5H705.48V122.9ZM709.368 126.356V139.172L713.256 136.916H721.368L722.856 135.38V129.188L720.984 126.356H709.368ZM734.213 122.9H738.053V150.164L740.021 152.996H751.637V149.54H755.525V156.5H738.197L734.213 150.548V122.9ZM770.866 122.9H784.21V156.5H780.37V141.14H766.93V156.5H763.09V130.916L770.866 122.9ZM766.93 131.828V137.684H780.37V126.356H772.258L766.93 131.828ZM809.199 122.9H813.087V156.5H809.199V143.684L797.535 126.356H795.663V156.5H791.823V122.9H799.359L809.199 137.444V122.9ZM824.445 122.9H841.821V126.356H825.885L824.397 127.94V136.82H835.533V140.324H824.397V150.26L826.269 153.044H841.821V156.5H824.397L820.557 150.74V126.884L824.445 122.9ZM847.466 122.9H872.522V126.356H858.218L861.962 128.66V156.5H858.074V129.14L856.25 126.356H847.466V122.9ZM885.415 156.5V149.78H892.135V156.5H885.415Z" fill="white"/>
</svg>
